<mxfile host="app.diagrams.net" modified="2023-10-05T11:30:31.682Z" agent="Mozilla/5.0 (X11; CrOS x86_64 14541.0.0) AppleWebKit/537.36 (KHTML, like Gecko) Chrome/117.0.0.0 Safari/537.36" etag="AnabCpklgOdZng5M9uKq" version="22.0.2" type="github">
  <diagram name="PÃ¡gina-1" id="Mka_hPVT99Yjn6llJlfG">
    <mxGraphModel dx="2227" dy="1882" grid="1" gridSize="10" guides="1" tooltips="1" connect="1" arrows="1" fold="1" page="1" pageScale="1" pageWidth="827" pageHeight="1169" math="0" shadow="0">
      <root>
        <mxCell id="0" />
        <mxCell id="1" parent="0" />
        <mxCell id="OjUDIB-_pPHaeTFg9-ev-72" style="edgeStyle=orthogonalEdgeStyle;rounded=0;orthogonalLoop=1;jettySize=auto;html=1;exitX=0.75;exitY=0;exitDx=0;exitDy=0;endArrow=none;endFill=0;" edge="1" parent="1" source="OjUDIB-_pPHaeTFg9-ev-1" target="OjUDIB-_pPHaeTFg9-ev-12">
          <mxGeometry relative="1" as="geometry" />
        </mxCell>
        <mxCell id="OjUDIB-_pPHaeTFg9-ev-73" style="edgeStyle=orthogonalEdgeStyle;rounded=0;orthogonalLoop=1;jettySize=auto;html=1;exitX=0.25;exitY=0;exitDx=0;exitDy=0;endArrow=none;endFill=0;" edge="1" parent="1" source="OjUDIB-_pPHaeTFg9-ev-1" target="OjUDIB-_pPHaeTFg9-ev-13">
          <mxGeometry relative="1" as="geometry" />
        </mxCell>
        <mxCell id="OjUDIB-_pPHaeTFg9-ev-74" style="edgeStyle=orthogonalEdgeStyle;rounded=0;orthogonalLoop=1;jettySize=auto;html=1;exitX=0.75;exitY=1;exitDx=0;exitDy=0;endArrow=none;endFill=0;" edge="1" parent="1" source="OjUDIB-_pPHaeTFg9-ev-1" target="OjUDIB-_pPHaeTFg9-ev-14">
          <mxGeometry relative="1" as="geometry" />
        </mxCell>
        <mxCell id="OjUDIB-_pPHaeTFg9-ev-75" style="edgeStyle=orthogonalEdgeStyle;rounded=0;orthogonalLoop=1;jettySize=auto;html=1;exitX=0.25;exitY=1;exitDx=0;exitDy=0;entryX=0.5;entryY=0;entryDx=0;entryDy=0;endArrow=none;endFill=0;" edge="1" parent="1" source="OjUDIB-_pPHaeTFg9-ev-1" target="OjUDIB-_pPHaeTFg9-ev-11">
          <mxGeometry relative="1" as="geometry" />
        </mxCell>
        <mxCell id="OjUDIB-_pPHaeTFg9-ev-79" style="edgeStyle=orthogonalEdgeStyle;rounded=0;orthogonalLoop=1;jettySize=auto;html=1;exitX=1;exitY=0;exitDx=0;exitDy=0;entryX=0;entryY=0.5;entryDx=0;entryDy=0;endArrow=none;endFill=0;" edge="1" parent="1" target="OjUDIB-_pPHaeTFg9-ev-61">
          <mxGeometry relative="1" as="geometry">
            <mxPoint x="690" y="151" as="targetPoint" />
            <mxPoint x="490" y="81" as="sourcePoint" />
          </mxGeometry>
        </mxCell>
        <mxCell id="OjUDIB-_pPHaeTFg9-ev-80" style="edgeStyle=orthogonalEdgeStyle;rounded=0;orthogonalLoop=1;jettySize=auto;html=1;exitX=1;exitY=0.25;exitDx=0;exitDy=0;entryX=0;entryY=1;entryDx=0;entryDy=0;endArrow=none;endFill=0;" edge="1" parent="1" source="OjUDIB-_pPHaeTFg9-ev-1" target="OjUDIB-_pPHaeTFg9-ev-63">
          <mxGeometry relative="1" as="geometry">
            <Array as="points">
              <mxPoint x="580" y="90" />
              <mxPoint x="580" y="114" />
            </Array>
          </mxGeometry>
        </mxCell>
        <mxCell id="OjUDIB-_pPHaeTFg9-ev-82" style="edgeStyle=orthogonalEdgeStyle;rounded=0;orthogonalLoop=1;jettySize=auto;html=1;exitX=1;exitY=0.75;exitDx=0;exitDy=0;entryX=0;entryY=0.5;entryDx=0;entryDy=0;endArrow=none;endFill=0;" edge="1" parent="1" source="OjUDIB-_pPHaeTFg9-ev-1" target="OjUDIB-_pPHaeTFg9-ev-58">
          <mxGeometry relative="1" as="geometry">
            <Array as="points">
              <mxPoint x="570" y="110" />
              <mxPoint x="570" y="150" />
            </Array>
          </mxGeometry>
        </mxCell>
        <mxCell id="OjUDIB-_pPHaeTFg9-ev-85" style="edgeStyle=orthogonalEdgeStyle;rounded=0;orthogonalLoop=1;jettySize=auto;html=1;exitX=0;exitY=0;exitDx=0;exitDy=0;entryX=1;entryY=0.5;entryDx=0;entryDy=0;endArrow=none;endFill=0;" edge="1" parent="1" source="OjUDIB-_pPHaeTFg9-ev-1" target="OjUDIB-_pPHaeTFg9-ev-62">
          <mxGeometry relative="1" as="geometry">
            <Array as="points">
              <mxPoint x="390" y="90" />
              <mxPoint x="325" y="90" />
              <mxPoint x="325" y="80" />
            </Array>
          </mxGeometry>
        </mxCell>
        <mxCell id="OjUDIB-_pPHaeTFg9-ev-88" style="edgeStyle=orthogonalEdgeStyle;rounded=0;orthogonalLoop=1;jettySize=auto;html=1;exitX=1;exitY=1;exitDx=0;exitDy=0;entryX=0;entryY=0;entryDx=0;entryDy=0;endArrow=none;endFill=0;" edge="1" parent="1" source="OjUDIB-_pPHaeTFg9-ev-1" target="OjUDIB-_pPHaeTFg9-ev-57">
          <mxGeometry relative="1" as="geometry" />
        </mxCell>
        <mxCell id="OjUDIB-_pPHaeTFg9-ev-1" value="estudiantes" style="rounded=1;arcSize=10;whiteSpace=wrap;html=1;align=center;fillColor=#dae8fc;strokeColor=#6c8ebf;" vertex="1" parent="1">
          <mxGeometry x="390" y="80" width="100" height="40" as="geometry" />
        </mxCell>
        <mxCell id="OjUDIB-_pPHaeTFg9-ev-29" style="edgeStyle=orthogonalEdgeStyle;rounded=0;orthogonalLoop=1;jettySize=auto;html=1;exitX=1;exitY=1;exitDx=0;exitDy=0;entryX=0;entryY=0;entryDx=0;entryDy=0;endArrow=none;endFill=0;" edge="1" parent="1" source="OjUDIB-_pPHaeTFg9-ev-2" target="OjUDIB-_pPHaeTFg9-ev-15">
          <mxGeometry relative="1" as="geometry" />
        </mxCell>
        <mxCell id="OjUDIB-_pPHaeTFg9-ev-31" style="edgeStyle=orthogonalEdgeStyle;rounded=0;orthogonalLoop=1;jettySize=auto;html=1;exitX=0.5;exitY=1;exitDx=0;exitDy=0;entryX=0.5;entryY=0;entryDx=0;entryDy=0;endArrow=none;endFill=0;" edge="1" parent="1" source="OjUDIB-_pPHaeTFg9-ev-2" target="OjUDIB-_pPHaeTFg9-ev-16">
          <mxGeometry relative="1" as="geometry" />
        </mxCell>
        <mxCell id="OjUDIB-_pPHaeTFg9-ev-33" style="edgeStyle=orthogonalEdgeStyle;rounded=0;orthogonalLoop=1;jettySize=auto;html=1;exitX=0;exitY=1;exitDx=0;exitDy=0;endArrow=none;endFill=0;" edge="1" parent="1" source="OjUDIB-_pPHaeTFg9-ev-2" target="OjUDIB-_pPHaeTFg9-ev-17">
          <mxGeometry relative="1" as="geometry" />
        </mxCell>
        <mxCell id="OjUDIB-_pPHaeTFg9-ev-2" value="cursos" style="rounded=1;arcSize=10;whiteSpace=wrap;html=1;align=center;fillColor=#dae8fc;strokeColor=#6c8ebf;" vertex="1" parent="1">
          <mxGeometry x="145" y="390" width="100" height="40" as="geometry" />
        </mxCell>
        <mxCell id="OjUDIB-_pPHaeTFg9-ev-52" style="edgeStyle=orthogonalEdgeStyle;rounded=0;orthogonalLoop=1;jettySize=auto;html=1;exitX=1;exitY=1;exitDx=0;exitDy=0;entryX=0.5;entryY=0;entryDx=0;entryDy=0;endArrow=none;endFill=0;" edge="1" parent="1" source="OjUDIB-_pPHaeTFg9-ev-3" target="OjUDIB-_pPHaeTFg9-ev-44">
          <mxGeometry relative="1" as="geometry" />
        </mxCell>
        <mxCell id="OjUDIB-_pPHaeTFg9-ev-3" value="aulas" style="rounded=1;arcSize=10;whiteSpace=wrap;html=1;align=center;fillColor=#dae8fc;strokeColor=#6c8ebf;" vertex="1" parent="1">
          <mxGeometry x="446" y="580" width="100" height="40" as="geometry" />
        </mxCell>
        <mxCell id="OjUDIB-_pPHaeTFg9-ev-53" style="edgeStyle=orthogonalEdgeStyle;rounded=0;orthogonalLoop=1;jettySize=auto;html=1;exitX=1;exitY=1;exitDx=0;exitDy=0;endArrow=none;endFill=0;" edge="1" parent="1" source="OjUDIB-_pPHaeTFg9-ev-4" target="OjUDIB-_pPHaeTFg9-ev-43">
          <mxGeometry relative="1" as="geometry" />
        </mxCell>
        <mxCell id="OjUDIB-_pPHaeTFg9-ev-96" style="edgeStyle=orthogonalEdgeStyle;rounded=0;orthogonalLoop=1;jettySize=auto;html=1;exitX=0;exitY=1;exitDx=0;exitDy=0;entryX=0.5;entryY=0;entryDx=0;entryDy=0;endArrow=none;endFill=0;" edge="1" parent="1" source="OjUDIB-_pPHaeTFg9-ev-4" target="OjUDIB-_pPHaeTFg9-ev-91">
          <mxGeometry relative="1" as="geometry" />
        </mxCell>
        <mxCell id="OjUDIB-_pPHaeTFg9-ev-4" value="profesores" style="rounded=1;arcSize=10;whiteSpace=wrap;html=1;align=center;fillColor=#dae8fc;strokeColor=#6c8ebf;" vertex="1" parent="1">
          <mxGeometry x="145" y="620" width="100" height="40" as="geometry" />
        </mxCell>
        <mxCell id="OjUDIB-_pPHaeTFg9-ev-5" value="materias" style="rounded=1;arcSize=10;whiteSpace=wrap;html=1;align=center;fillColor=#dae8fc;strokeColor=#6c8ebf;" vertex="1" parent="1">
          <mxGeometry x="-130" y="565" width="100" height="40" as="geometry" />
        </mxCell>
        <mxCell id="OjUDIB-_pPHaeTFg9-ev-6" value="actividades extracurriculares" style="rounded=1;arcSize=10;whiteSpace=wrap;html=1;align=center;fillColor=#dae8fc;strokeColor=#6c8ebf;" vertex="1" parent="1">
          <mxGeometry x="573" y="410" width="100" height="40" as="geometry" />
        </mxCell>
        <mxCell id="OjUDIB-_pPHaeTFg9-ev-56" style="edgeStyle=orthogonalEdgeStyle;rounded=0;orthogonalLoop=1;jettySize=auto;html=1;exitX=1;exitY=0;exitDx=0;exitDy=0;entryX=0.5;entryY=1;entryDx=0;entryDy=0;endArrow=none;endFill=0;" edge="1" parent="1" source="OjUDIB-_pPHaeTFg9-ev-7" target="OjUDIB-_pPHaeTFg9-ev-55">
          <mxGeometry relative="1" as="geometry" />
        </mxCell>
        <mxCell id="OjUDIB-_pPHaeTFg9-ev-7" value="asistencias" style="rounded=1;arcSize=10;whiteSpace=wrap;html=1;align=center;fillColor=#dae8fc;strokeColor=#6c8ebf;" vertex="1" parent="1">
          <mxGeometry x="213" y="-153" width="100" height="40" as="geometry" />
        </mxCell>
        <mxCell id="OjUDIB-_pPHaeTFg9-ev-49" style="edgeStyle=orthogonalEdgeStyle;rounded=0;orthogonalLoop=1;jettySize=auto;html=1;endArrow=none;endFill=0;" edge="1" parent="1" source="OjUDIB-_pPHaeTFg9-ev-8" target="OjUDIB-_pPHaeTFg9-ev-47">
          <mxGeometry relative="1" as="geometry" />
        </mxCell>
        <mxCell id="OjUDIB-_pPHaeTFg9-ev-8" value="calificaciones" style="rounded=1;arcSize=10;whiteSpace=wrap;html=1;align=center;fillColor=#dae8fc;strokeColor=#6c8ebf;" vertex="1" parent="1">
          <mxGeometry x="537" y="-153" width="100" height="40" as="geometry" />
        </mxCell>
        <mxCell id="OjUDIB-_pPHaeTFg9-ev-28" style="edgeStyle=orthogonalEdgeStyle;rounded=0;orthogonalLoop=1;jettySize=auto;html=1;exitX=0.5;exitY=1;exitDx=0;exitDy=0;entryX=0.5;entryY=0;entryDx=0;entryDy=0;endArrow=none;endFill=0;" edge="1" parent="1" source="OjUDIB-_pPHaeTFg9-ev-11" target="OjUDIB-_pPHaeTFg9-ev-2">
          <mxGeometry relative="1" as="geometry" />
        </mxCell>
        <mxCell id="OjUDIB-_pPHaeTFg9-ev-89" style="edgeStyle=orthogonalEdgeStyle;rounded=0;orthogonalLoop=1;jettySize=auto;html=1;exitX=1;exitY=0.5;exitDx=0;exitDy=0;entryX=0;entryY=0.5;entryDx=0;entryDy=0;endArrow=none;endFill=0;" edge="1" parent="1" source="OjUDIB-_pPHaeTFg9-ev-11" target="OjUDIB-_pPHaeTFg9-ev-35">
          <mxGeometry relative="1" as="geometry" />
        </mxCell>
        <mxCell id="OjUDIB-_pPHaeTFg9-ev-11" value="matriculados" style="shape=rhombus;perimeter=rhombusPerimeter;whiteSpace=wrap;html=1;align=center;fillColor=#d5e8d4;strokeColor=#82b366;" vertex="1" parent="1">
          <mxGeometry x="190" y="260" width="106" height="60" as="geometry" />
        </mxCell>
        <mxCell id="OjUDIB-_pPHaeTFg9-ev-19" style="edgeStyle=orthogonalEdgeStyle;rounded=0;orthogonalLoop=1;jettySize=auto;html=1;exitX=0.5;exitY=0;exitDx=0;exitDy=0;endArrow=none;endFill=0;" edge="1" parent="1" source="OjUDIB-_pPHaeTFg9-ev-12" target="OjUDIB-_pPHaeTFg9-ev-8">
          <mxGeometry relative="1" as="geometry" />
        </mxCell>
        <mxCell id="OjUDIB-_pPHaeTFg9-ev-12" value="obtienen" style="shape=rhombus;perimeter=rhombusPerimeter;whiteSpace=wrap;html=1;align=center;fillColor=#d5e8d4;strokeColor=#82b366;" vertex="1" parent="1">
          <mxGeometry x="534" y="-40" width="106" height="60" as="geometry" />
        </mxCell>
        <mxCell id="OjUDIB-_pPHaeTFg9-ev-23" style="edgeStyle=orthogonalEdgeStyle;rounded=0;orthogonalLoop=1;jettySize=auto;html=1;exitX=0.5;exitY=0;exitDx=0;exitDy=0;endArrow=none;endFill=0;" edge="1" parent="1" source="OjUDIB-_pPHaeTFg9-ev-13" target="OjUDIB-_pPHaeTFg9-ev-7">
          <mxGeometry relative="1" as="geometry" />
        </mxCell>
        <mxCell id="OjUDIB-_pPHaeTFg9-ev-13" value="tienen" style="shape=rhombus;perimeter=rhombusPerimeter;whiteSpace=wrap;html=1;align=center;fillColor=#d5e8d4;strokeColor=#82b366;" vertex="1" parent="1">
          <mxGeometry x="210" y="-40" width="106" height="60" as="geometry" />
        </mxCell>
        <mxCell id="OjUDIB-_pPHaeTFg9-ev-26" style="edgeStyle=orthogonalEdgeStyle;rounded=0;orthogonalLoop=1;jettySize=auto;html=1;exitX=0.5;exitY=1;exitDx=0;exitDy=0;entryX=0.5;entryY=0;entryDx=0;entryDy=0;endArrow=none;endFill=0;" edge="1" parent="1" source="OjUDIB-_pPHaeTFg9-ev-14" target="OjUDIB-_pPHaeTFg9-ev-6">
          <mxGeometry relative="1" as="geometry" />
        </mxCell>
        <mxCell id="OjUDIB-_pPHaeTFg9-ev-14" value="realizan" style="shape=rhombus;perimeter=rhombusPerimeter;whiteSpace=wrap;html=1;align=center;fillColor=#d5e8d4;strokeColor=#82b366;" vertex="1" parent="1">
          <mxGeometry x="570" y="250" width="106" height="60" as="geometry" />
        </mxCell>
        <mxCell id="OjUDIB-_pPHaeTFg9-ev-30" style="edgeStyle=orthogonalEdgeStyle;rounded=0;orthogonalLoop=1;jettySize=auto;html=1;exitX=1;exitY=1;exitDx=0;exitDy=0;endArrow=none;endFill=0;" edge="1" parent="1" source="OjUDIB-_pPHaeTFg9-ev-15" target="OjUDIB-_pPHaeTFg9-ev-3">
          <mxGeometry relative="1" as="geometry" />
        </mxCell>
        <mxCell id="OjUDIB-_pPHaeTFg9-ev-15" value="imparten" style="shape=rhombus;perimeter=rhombusPerimeter;whiteSpace=wrap;html=1;align=center;fillColor=#d5e8d4;strokeColor=#82b366;" vertex="1" parent="1">
          <mxGeometry x="340" y="470" width="106" height="60" as="geometry" />
        </mxCell>
        <mxCell id="OjUDIB-_pPHaeTFg9-ev-32" style="edgeStyle=orthogonalEdgeStyle;rounded=0;orthogonalLoop=1;jettySize=auto;html=1;exitX=0.5;exitY=1;exitDx=0;exitDy=0;endArrow=none;endFill=0;" edge="1" parent="1" source="OjUDIB-_pPHaeTFg9-ev-16" target="OjUDIB-_pPHaeTFg9-ev-4">
          <mxGeometry relative="1" as="geometry" />
        </mxCell>
        <mxCell id="OjUDIB-_pPHaeTFg9-ev-16" value="enseÃ±an" style="shape=rhombus;perimeter=rhombusPerimeter;whiteSpace=wrap;html=1;align=center;fillColor=#d5e8d4;strokeColor=#82b366;" vertex="1" parent="1">
          <mxGeometry x="142" y="470" width="106" height="60" as="geometry" />
        </mxCell>
        <mxCell id="OjUDIB-_pPHaeTFg9-ev-34" style="edgeStyle=orthogonalEdgeStyle;rounded=0;orthogonalLoop=1;jettySize=auto;html=1;exitX=0;exitY=1;exitDx=0;exitDy=0;entryX=0.5;entryY=0;entryDx=0;entryDy=0;endArrow=none;endFill=0;" edge="1" parent="1" source="OjUDIB-_pPHaeTFg9-ev-17" target="OjUDIB-_pPHaeTFg9-ev-5">
          <mxGeometry relative="1" as="geometry" />
        </mxCell>
        <mxCell id="OjUDIB-_pPHaeTFg9-ev-17" value="tienen" style="shape=rhombus;perimeter=rhombusPerimeter;whiteSpace=wrap;html=1;align=center;fillColor=#d5e8d4;strokeColor=#82b366;" vertex="1" parent="1">
          <mxGeometry x="-20" y="480" width="106" height="60" as="geometry" />
        </mxCell>
        <mxCell id="OjUDIB-_pPHaeTFg9-ev-70" style="edgeStyle=orthogonalEdgeStyle;rounded=0;orthogonalLoop=1;jettySize=auto;html=1;exitX=0.5;exitY=1;exitDx=0;exitDy=0;endArrow=none;endFill=0;" edge="1" parent="1" source="OjUDIB-_pPHaeTFg9-ev-35" target="OjUDIB-_pPHaeTFg9-ev-37">
          <mxGeometry relative="1" as="geometry" />
        </mxCell>
        <mxCell id="OjUDIB-_pPHaeTFg9-ev-35" value="&lt;u&gt;ID&lt;/u&gt;" style="ellipse;whiteSpace=wrap;html=1;align=center;fillColor=#ffe6cc;strokeColor=#d79b00;" vertex="1" parent="1">
          <mxGeometry x="363" y="230" width="60" height="40" as="geometry" />
        </mxCell>
        <mxCell id="OjUDIB-_pPHaeTFg9-ev-36" value="id de estudiante" style="ellipse;whiteSpace=wrap;html=1;align=center;fillColor=#ffe6cc;strokeColor=#d79b00;" vertex="1" parent="1">
          <mxGeometry x="400" y="320" width="70" height="40" as="geometry" />
        </mxCell>
        <mxCell id="OjUDIB-_pPHaeTFg9-ev-37" value="id de curso" style="ellipse;whiteSpace=wrap;html=1;align=center;fillColor=#ffe6cc;strokeColor=#d79b00;" vertex="1" parent="1">
          <mxGeometry x="320" y="320" width="70" height="40" as="geometry" />
        </mxCell>
        <mxCell id="OjUDIB-_pPHaeTFg9-ev-43" value="&lt;u&gt;ID&lt;/u&gt;" style="ellipse;whiteSpace=wrap;html=1;align=center;fillColor=#ffe6cc;strokeColor=#d79b00;" vertex="1" parent="1">
          <mxGeometry x="280" y="700" width="60" height="40" as="geometry" />
        </mxCell>
        <mxCell id="OjUDIB-_pPHaeTFg9-ev-44" value="&lt;u&gt;ID&lt;/u&gt;" style="ellipse;whiteSpace=wrap;html=1;align=center;fillColor=#ffe6cc;strokeColor=#d79b00;" vertex="1" parent="1">
          <mxGeometry x="520" y="640" width="60" height="40" as="geometry" />
        </mxCell>
        <mxCell id="OjUDIB-_pPHaeTFg9-ev-45" value="&lt;u&gt;ID&lt;/u&gt;" style="ellipse;whiteSpace=wrap;html=1;align=center;fillColor=#ffe6cc;strokeColor=#d79b00;" vertex="1" parent="1">
          <mxGeometry x="-330" y="570" width="60" height="40" as="geometry" />
        </mxCell>
        <mxCell id="OjUDIB-_pPHaeTFg9-ev-46" value="&lt;u&gt;ID&lt;/u&gt;" style="ellipse;whiteSpace=wrap;html=1;align=center;fillColor=#ffe6cc;strokeColor=#d79b00;" vertex="1" parent="1">
          <mxGeometry x="680" y="480" width="60" height="40" as="geometry" />
        </mxCell>
        <mxCell id="OjUDIB-_pPHaeTFg9-ev-47" value="&lt;u&gt;ID&lt;/u&gt;" style="ellipse;whiteSpace=wrap;html=1;align=center;fillColor=#ffe6cc;strokeColor=#d79b00;" vertex="1" parent="1">
          <mxGeometry x="574" y="-240" width="60" height="40" as="geometry" />
        </mxCell>
        <mxCell id="OjUDIB-_pPHaeTFg9-ev-48" value="nota" style="ellipse;whiteSpace=wrap;html=1;align=center;fillColor=#ffe6cc;strokeColor=#d79b00;" vertex="1" parent="1">
          <mxGeometry x="660" y="-200" width="60" height="40" as="geometry" />
        </mxCell>
        <mxCell id="OjUDIB-_pPHaeTFg9-ev-50" style="edgeStyle=orthogonalEdgeStyle;rounded=0;orthogonalLoop=1;jettySize=auto;html=1;exitX=1;exitY=0.5;exitDx=0;exitDy=0;entryX=0.389;entryY=1.054;entryDx=0;entryDy=0;entryPerimeter=0;endArrow=none;endFill=0;" edge="1" parent="1" source="OjUDIB-_pPHaeTFg9-ev-8" target="OjUDIB-_pPHaeTFg9-ev-48">
          <mxGeometry relative="1" as="geometry" />
        </mxCell>
        <mxCell id="OjUDIB-_pPHaeTFg9-ev-51" style="edgeStyle=orthogonalEdgeStyle;rounded=0;orthogonalLoop=1;jettySize=auto;html=1;exitX=1;exitY=1;exitDx=0;exitDy=0;entryX=0.324;entryY=0.001;entryDx=0;entryDy=0;entryPerimeter=0;endArrow=none;endFill=0;" edge="1" parent="1" source="OjUDIB-_pPHaeTFg9-ev-6" target="OjUDIB-_pPHaeTFg9-ev-46">
          <mxGeometry relative="1" as="geometry" />
        </mxCell>
        <mxCell id="OjUDIB-_pPHaeTFg9-ev-55" value="&lt;u&gt;ID&lt;/u&gt;" style="ellipse;whiteSpace=wrap;html=1;align=center;fillColor=#ffe6cc;strokeColor=#d79b00;" vertex="1" parent="1">
          <mxGeometry x="310" y="-240" width="60" height="40" as="geometry" />
        </mxCell>
        <mxCell id="OjUDIB-_pPHaeTFg9-ev-57" value="nombre" style="ellipse;whiteSpace=wrap;html=1;align=center;fillColor=#ffe6cc;strokeColor=#d79b00;" vertex="1" parent="1">
          <mxGeometry x="493" y="140" width="70" height="40" as="geometry" />
        </mxCell>
        <mxCell id="OjUDIB-_pPHaeTFg9-ev-58" value="apellido" style="ellipse;whiteSpace=wrap;html=1;align=center;fillColor=#ffe6cc;strokeColor=#d79b00;" vertex="1" parent="1">
          <mxGeometry x="620" y="130" width="70" height="40" as="geometry" />
        </mxCell>
        <mxCell id="OjUDIB-_pPHaeTFg9-ev-87" style="edgeStyle=orthogonalEdgeStyle;rounded=0;orthogonalLoop=1;jettySize=auto;html=1;exitX=1;exitY=0.5;exitDx=0;exitDy=0;entryX=0;entryY=0.75;entryDx=0;entryDy=0;endArrow=none;endFill=0;" edge="1" parent="1" source="OjUDIB-_pPHaeTFg9-ev-59" target="OjUDIB-_pPHaeTFg9-ev-1">
          <mxGeometry relative="1" as="geometry" />
        </mxCell>
        <mxCell id="OjUDIB-_pPHaeTFg9-ev-59" value="fecha de nacimiento" style="ellipse;whiteSpace=wrap;html=1;align=center;fillColor=#ffe6cc;strokeColor=#d79b00;" vertex="1" parent="1">
          <mxGeometry x="175" y="140" width="70" height="40" as="geometry" />
        </mxCell>
        <mxCell id="OjUDIB-_pPHaeTFg9-ev-86" style="edgeStyle=orthogonalEdgeStyle;rounded=0;orthogonalLoop=1;jettySize=auto;html=1;exitX=1;exitY=0.5;exitDx=0;exitDy=0;entryX=0;entryY=0.5;entryDx=0;entryDy=0;endArrow=none;endFill=0;" edge="1" parent="1" source="OjUDIB-_pPHaeTFg9-ev-60" target="OjUDIB-_pPHaeTFg9-ev-1">
          <mxGeometry relative="1" as="geometry" />
        </mxCell>
        <mxCell id="OjUDIB-_pPHaeTFg9-ev-60" value="telefono" style="ellipse;whiteSpace=wrap;html=1;align=center;fillColor=#ffe6cc;strokeColor=#d79b00;" vertex="1" parent="1">
          <mxGeometry x="160" y="100" width="70" height="40" as="geometry" />
        </mxCell>
        <mxCell id="OjUDIB-_pPHaeTFg9-ev-61" value="horario" style="ellipse;whiteSpace=wrap;html=1;align=center;fillColor=#ffe6cc;strokeColor=#d79b00;" vertex="1" parent="1">
          <mxGeometry x="620" y="40" width="70" height="40" as="geometry" />
        </mxCell>
        <mxCell id="OjUDIB-_pPHaeTFg9-ev-62" value="matricula" style="ellipse;whiteSpace=wrap;html=1;align=center;fillColor=#ffe6cc;strokeColor=#d79b00;" vertex="1" parent="1">
          <mxGeometry x="190" y="60" width="70" height="40" as="geometry" />
        </mxCell>
        <mxCell id="OjUDIB-_pPHaeTFg9-ev-63" value="fecha" style="ellipse;whiteSpace=wrap;html=1;align=center;fillColor=#ffe6cc;strokeColor=#d79b00;" vertex="1" parent="1">
          <mxGeometry x="606" y="80" width="70" height="40" as="geometry" />
        </mxCell>
        <mxCell id="OjUDIB-_pPHaeTFg9-ev-90" style="edgeStyle=orthogonalEdgeStyle;rounded=0;orthogonalLoop=1;jettySize=auto;html=1;exitX=0.5;exitY=1;exitDx=0;exitDy=0;entryX=0.41;entryY=0.073;entryDx=0;entryDy=0;entryPerimeter=0;endArrow=none;endFill=0;" edge="1" parent="1" source="OjUDIB-_pPHaeTFg9-ev-35" target="OjUDIB-_pPHaeTFg9-ev-36">
          <mxGeometry relative="1" as="geometry" />
        </mxCell>
        <mxCell id="OjUDIB-_pPHaeTFg9-ev-91" value="nombre" style="ellipse;whiteSpace=wrap;html=1;align=center;fillColor=#ffe6cc;strokeColor=#d79b00;" vertex="1" parent="1">
          <mxGeometry x="60" y="700" width="70" height="40" as="geometry" />
        </mxCell>
        <mxCell id="OjUDIB-_pPHaeTFg9-ev-92" value="apellido" style="ellipse;whiteSpace=wrap;html=1;align=center;fillColor=#ffe6cc;strokeColor=#d79b00;" vertex="1" parent="1">
          <mxGeometry x="60" y="760" width="70" height="40" as="geometry" />
        </mxCell>
        <mxCell id="OjUDIB-_pPHaeTFg9-ev-100" style="edgeStyle=orthogonalEdgeStyle;rounded=0;orthogonalLoop=1;jettySize=auto;html=1;exitX=0;exitY=0;exitDx=0;exitDy=0;entryX=0.5;entryY=1;entryDx=0;entryDy=0;endArrow=none;endFill=0;" edge="1" parent="1" source="OjUDIB-_pPHaeTFg9-ev-93" target="OjUDIB-_pPHaeTFg9-ev-4">
          <mxGeometry relative="1" as="geometry" />
        </mxCell>
        <mxCell id="OjUDIB-_pPHaeTFg9-ev-93" value="telefono" style="ellipse;whiteSpace=wrap;html=1;align=center;fillColor=#ffe6cc;strokeColor=#d79b00;" vertex="1" parent="1">
          <mxGeometry x="213" y="800" width="70" height="40" as="geometry" />
        </mxCell>
        <mxCell id="OjUDIB-_pPHaeTFg9-ev-94" value="horario" style="ellipse;whiteSpace=wrap;html=1;align=center;fillColor=#ffe6cc;strokeColor=#d79b00;" vertex="1" parent="1">
          <mxGeometry x="260" y="760" width="70" height="40" as="geometry" />
        </mxCell>
        <mxCell id="OjUDIB-_pPHaeTFg9-ev-99" style="edgeStyle=orthogonalEdgeStyle;rounded=0;orthogonalLoop=1;jettySize=auto;html=1;exitX=0.5;exitY=0;exitDx=0;exitDy=0;entryX=0.25;entryY=1;entryDx=0;entryDy=0;endArrow=none;endFill=0;" edge="1" parent="1" source="OjUDIB-_pPHaeTFg9-ev-95" target="OjUDIB-_pPHaeTFg9-ev-4">
          <mxGeometry relative="1" as="geometry" />
        </mxCell>
        <mxCell id="OjUDIB-_pPHaeTFg9-ev-95" value="email" style="ellipse;whiteSpace=wrap;html=1;align=center;fillColor=#ffe6cc;strokeColor=#d79b00;" vertex="1" parent="1">
          <mxGeometry x="130" y="800" width="70" height="40" as="geometry" />
        </mxCell>
        <mxCell id="OjUDIB-_pPHaeTFg9-ev-101" style="edgeStyle=orthogonalEdgeStyle;rounded=0;orthogonalLoop=1;jettySize=auto;html=1;exitX=0;exitY=0;exitDx=0;exitDy=0;entryX=0.916;entryY=1.069;entryDx=0;entryDy=0;entryPerimeter=0;endArrow=none;endFill=0;" edge="1" parent="1" source="OjUDIB-_pPHaeTFg9-ev-94" target="OjUDIB-_pPHaeTFg9-ev-4">
          <mxGeometry relative="1" as="geometry" />
        </mxCell>
        <mxCell id="OjUDIB-_pPHaeTFg9-ev-102" style="edgeStyle=orthogonalEdgeStyle;rounded=0;orthogonalLoop=1;jettySize=auto;html=1;exitX=1;exitY=0;exitDx=0;exitDy=0;entryX=0.15;entryY=1;entryDx=0;entryDy=0;entryPerimeter=0;endArrow=none;endFill=0;" edge="1" parent="1" source="OjUDIB-_pPHaeTFg9-ev-92" target="OjUDIB-_pPHaeTFg9-ev-4">
          <mxGeometry relative="1" as="geometry" />
        </mxCell>
      </root>
    </mxGraphModel>
  </diagram>
</mxfile>
